<svg t="1711620762527" class="icon" viewBox="0 0 1024 1024" version="1.1" xmlns="http://www.w3.org/2000/svg" p-id="4333" width="200" height="200"><path d="M520.914 502.712c-4.557 0-9.119-1.05-13.307-3.015L98.401 303.467a30.797 30.797 0 0 1-17.5-27.79 30.797 30.797 0 0 1 17.5-27.797L507.612 51.656c8.5-4.004 18.36-4.066 26.798 0.061l403.856 196.224a30.75 30.75 0 0 1 17.305 27.735 30.822 30.822 0 0 1-17.305 27.73L534.354 499.564a30.024 30.024 0 0 1-13.44 3.148z m-337.9-227.036l337.844 161.956 333.399-161.956-333.4-161.96-337.843 161.96z m337.9 693.489a31.094 31.094 0 0 1-13.435-3.082l-403.84-196.214a30.812 30.812 0 0 1-14.234-41.232 30.792 30.792 0 0 1 41.17-14.238L520.92 904.084 911.268 714.4c15.35-7.332 33.776-0.988 41.236 14.238 7.383 15.345 1.04 33.772-14.238 41.232l-403.85 196.214c-4.25 2.099-8.874 3.082-13.502 3.082z" p-id="4334"></path><path d="M924.575 763.945a30.822 30.822 0 0 1-30.818-30.807V281.037a30.822 30.822 0 0 1 61.64 0v452.106a30.787 30.787 0 0 1-30.822 30.802z m-816.558 3.569A30.822 30.822 0 0 1 77.199 736.7V281.037a30.828 30.828 0 0 1 30.818-30.812 30.822 30.822 0 0 1 30.812 30.812v455.67a30.822 30.822 0 0 1-30.812 30.807z m439.137 163.445H484.75V474.04h62.429l-0.026 456.92z" p-id="4335"></path></svg>