<svg t="1712886160439" class="icon" viewBox="0 0 1024 1024" version="1.1" xmlns="http://www.w3.org/2000/svg" p-id="1646" width="200" height="200"><path d="M127.717439 105.112583c12.484662 0 22.604857 10.120194 22.604857 22.604856v745.960265h745.960265c12.484662 0 22.604857 10.120194 22.604856 22.604857s-10.120194 22.604857-22.604856 22.604856H150.322296c-24.968194 0-45.209713-20.241519-45.209713-45.209713V127.717439c0-12.484662 10.120194-22.604857 22.604856-22.604856z m702.09102 232.722649c12.484662 0 22.604857 10.120194 22.604857 22.604856v79.116998c0 12.483532-10.120194 22.604857-22.604857 22.604857s-22.604857-10.121325-22.604856-22.604857l-0.001131-24.543223-183.985448 183.985448c-17.655523 17.655523-46.281183 17.655523-63.936706 0L434.604362 474.323355l-199.001854 199.001855c-8.827196 8.827196-23.139461 8.827196-31.967788 0-8.827196-8.827196-8.827196-23.140592 0-31.967788l199.001854-199.001855c17.655523-17.654393 46.281183-17.654393 63.936706 0L591.248106 567.031523l183.986578-183.986578h-24.543223c-12.353554 0-22.393501-9.91223-22.601465-22.216053l-0.003391-0.388804c0-12.484662 10.120194-22.604857 22.604856-22.604856h79.116998z" fill="#448AFF" p-id="1647"></path></svg>