<svg t="1712060178648" class="icon" viewBox="0 0 1105 1024" version="1.1" xmlns="http://www.w3.org/2000/svg" p-id="2421" width="200" height="200"><path d="M1034.778947 21.557895c-5.389474-16.168421-21.557895-21.557895-32.336842-16.168421l-328.757894 123.957894c-5.389474 0-10.778947 5.389474-16.168422 16.168421l-75.452631 177.852632c-5.389474 10.778947 0 21.557895 10.778947 32.336842 5.389474 5.389474 10.778947 5.389474 16.168421 5.389474 5.389474 0 10.778947 0 16.168421-5.389474L1029.389474 53.894737c10.778947-5.389474 10.778947-21.557895 5.389473-32.336842z" fill="#E2761B" p-id="2422"></path><path d="M501.221053 323.368421L431.157895 145.515789c0-5.389474-5.389474-10.778947-16.168421-16.168421L86.231579 5.389474c-10.778947-5.389474-26.947368 0-32.336842 16.168421-5.389474 10.778947-5.389474 21.557895 5.389474 32.336842l398.821052 301.810526c5.389474 5.389474 10.778947 5.389474 16.168421 5.389474 5.389474 0 10.778947 0 16.168421-5.389474 16.168421-5.389474 16.168421-21.557895 10.778948-32.336842zM1077.894737 716.8c-5.389474-5.389474-10.778947-10.778947-21.557895-10.778947l-188.631579-5.389474c-10.778947 0-16.168421 5.389474-21.557895 10.778947l-107.789473 167.073685c-5.389474 5.389474-5.389474 16.168421 0 26.947368 5.389474 5.389474 10.778947 16.168421 16.168421 16.168421l231.747368 64.673684h5.389474c10.778947 0 21.557895-5.389474 26.947368-21.557895l64.673685-226.357894c0-5.389474 0-16.168421-5.389474-21.557895zM355.705263 878.484211l-107.789474-167.073685c-5.389474-5.389474-10.778947-10.778947-21.557894-10.778947L32.336842 706.021053c-10.778947 0-16.168421 5.389474-21.557895 10.778947-5.389474 5.389474-5.389474 16.168421-5.389473 21.557895l64.673684 226.357894c5.389474 10.778947 16.168421 21.557895 26.947368 21.557895h5.389474L334.147368 921.6c10.778947 0 16.168421-10.778947 16.168421-16.168421 10.778947-10.778947 10.778947-21.557895 5.389474-26.947368z" fill="#E4761B" p-id="2423"></path><path d="M501.221053 312.589474c0-10.778947-5.389474-21.557895-16.168421-21.557895-10.778947-5.389474-21.557895 0-26.947369 5.389474L301.810526 431.157895l-5.389473 5.389473-64.673685 97.010527c-5.389474 10.778947-5.389474 16.168421 0 26.947368s10.778947 16.168421 21.557895 16.168421l226.357895 10.778948c5.389474 0 16.168421-5.389474 21.557895-5.389474 5.389474-5.389474 10.778947-10.778947 5.389473-21.557895l-5.389473-247.915789zM856.926316 533.557895L792.252632 436.547368l-5.389474-5.389473-156.294737-140.126316c-5.389474-5.389474-21.557895-10.778947-26.947368-5.389474-10.778947 5.389474-16.168421 16.168421-16.168421 21.557895l-5.389474 247.915789c0 5.389474 5.389474 16.168421 10.778947 21.557895 5.389474 5.389474 10.778947 5.389474 16.168421 5.389474l226.357895-10.778947c10.778947 0 16.168421-5.389474 21.557895-16.168422 5.389474-5.389474 5.389474-16.168421 0-21.557894zM334.147368 894.652632l134.736843-64.673685-118.568422-91.621052-16.168421 156.294737z" fill="#E4761B" p-id="2424"></path><path d="M334.147368 921.6c-5.389474 0-10.778947 0-16.168421-5.389474-5.389474-5.389474-10.778947-16.168421-10.778947-26.947368l16.168421-161.684211c0-10.778947 5.389474-16.168421 16.168421-21.557894 10.778947-5.389474 21.557895 0 26.947369 5.389473L485.052632 803.031579c5.389474 5.389474 10.778947 16.168421 10.778947 21.557895 0 10.778947-5.389474 16.168421-16.168421 21.557894l-134.736842 64.673685-10.778948 10.778947z m37.726316-140.126316l-5.389473 64.673684 53.894736-26.947368-48.505263-37.726316zM765.305263 727.578947c0-10.778947-5.389474-16.168421-16.168421-21.557894-10.778947-5.389474-21.557895 0-26.947368 5.389473l-118.568421 91.621053c-5.389474 5.389474-10.778947 16.168421-10.778948 21.557895 0 10.778947 5.389474 16.168421 16.168421 21.557894l140.126316 64.673685c5.389474 0 5.389474 5.389474 10.778947 5.389473s10.778947 0 16.168422-5.389473c5.389474-5.389474 10.778947-16.168421 10.778947-26.947369l-21.557895-156.294737z" fill="#E4761B" p-id="2425"></path><path d="M770.694737 867.705263l-140.126316-64.673684c-10.778947-5.389474-21.557895-5.389474-26.947368 0-5.389474 5.389474-10.778947 16.168421-10.778948 26.947368l10.778948 86.231579v37.726316c0 10.778947 5.389474 16.168421 10.778947 21.557895 5.389474 5.389474 10.778947 5.389474 16.168421 5.389474h10.778947l129.347369-59.284211c10.778947-5.389474 16.168421-16.168421 16.168421-21.557895 0-16.168421-5.389474-26.947368-16.168421-32.336842zM495.831579 829.978947c0-10.778947-5.389474-21.557895-10.778947-26.947368-5.389474-5.389474-16.168421-5.389474-26.947369 0L317.978947 867.705263c-10.778947 5.389474-16.168421 16.168421-16.168421 26.947369s5.389474 21.557895 16.168421 21.557894L447.326316 975.494737h10.778947c5.389474 0 10.778947 0 16.168421-5.389474 5.389474 0 10.778947-10.778947 10.778948-16.168421V921.6l10.778947-91.621053z" fill="#D7C1B3" p-id="2426"></path><path d="M463.494737 673.684211l-113.178948-32.336843 80.842106-37.726315 32.336842 70.063158z" fill="#233447" p-id="2427"></path><path d="M463.494737 700.631579h-5.389474l-113.178947-32.336842c-16.168421-5.389474-21.557895-16.168421-26.947369-26.947369 0-10.778947 5.389474-21.557895 16.168421-26.947368l80.842106-37.726316c10.778947-5.389474 26.947368 0 37.726315 10.778948l32.336843 75.452631c5.389474 10.778947 5.389474 21.557895-5.389474 26.947369-5.389474 5.389474-10.778947 10.778947-16.168421 10.778947zM625.178947 673.684211l32.336842-70.063158 80.842106 37.726315-113.178948 32.336843z" fill="#233447" p-id="2428"></path><path d="M625.178947 700.631579c-5.389474 0-16.168421-5.389474-21.557894-10.778947-5.389474-10.778947-10.778947-21.557895-5.389474-26.947369l32.336842-70.063158c5.389474-10.778947 21.557895-21.557895 37.726316-10.778947l80.842105 37.726316c10.778947 5.389474 16.168421 16.168421 16.168421 26.947368s-10.778947 21.557895-21.557895 21.557895l-113.178947 32.336842h-5.389474z" fill="#233447" p-id="2429"></path><path d="M371.873684 711.410526c-5.389474-5.389474-10.778947-10.778947-21.557895-10.778947l-129.347368 5.389474c-10.778947 0-16.168421 5.389474-21.557895 16.168421s-5.389474 21.557895 0 26.947368l107.789474 161.684211c5.389474 5.389474 16.168421 10.778947 26.947368 10.778947h5.389474c10.778947 0 21.557895-10.778947 21.557895-21.557895l16.168421-167.073684c0-10.778947 0-16.168421-5.389474-21.557895zM889.263158 716.8c-5.389474-10.778947-10.778947-16.168421-21.557895-16.168421l-129.347368-5.389474c-10.778947 0-16.168421 5.389474-21.557895 10.778948s-5.389474 16.168421-5.389474 21.557894l21.557895 167.073685c0 10.778947 10.778947 21.557895 21.557895 21.557894h5.389473c10.778947 0 16.168421-5.389474 21.557895-10.778947l107.789474-161.684211c5.389474-5.389474 5.389474-16.168421 0-26.947368zM856.926316 533.557895c-5.389474-10.778947-16.168421-16.168421-26.947369-16.168421l-226.357894 10.778947c-5.389474 0-16.168421 5.389474-21.557895 10.778947s-5.389474 16.168421-5.389474 21.557895l21.557895 118.568421c0 10.778947 10.778947 21.557895 21.557895 21.557895h5.389473c10.778947 0 21.557895-5.389474 26.947369-16.168421l21.557895-48.505263 59.28421 26.947368c10.778947 5.389474 21.557895 0 32.336842-5.389474l91.621053-91.621052c5.389474-10.778947 5.389474-21.557895 0-32.336842zM506.610526 538.947368c-5.389474-5.389474-16.168421-10.778947-21.557894-10.778947l-231.747369-10.778947c-10.778947 0-21.557895 5.389474-26.947368 16.168421-5.389474 10.778947 0 21.557895 5.389473 32.336842L323.368421 657.515789c5.389474 5.389474 21.557895 10.778947 32.336842 5.389474l59.284211-26.947368 21.557894 48.505263c5.389474 10.778947 16.168421 16.168421 26.947369 16.168421h5.389474c10.778947 0 21.557895-10.778947 21.557894-21.557895l21.557895-118.568421c0-5.389474-5.389474-16.168421-5.389474-21.557895z" fill="#CD6116" p-id="2430"></path><path d="M371.873684 641.347368c0-5.389474-5.389474-10.778947-5.389473-16.168421L274.863158 528.168421c-10.778947-10.778947-26.947368-10.778947-37.726316-5.389474-10.778947 10.778947-10.778947 21.557895-5.389474 37.726316l97.010527 188.631579c0 5.389474 10.778947 10.778947 21.557894 10.778947h5.389474c10.778947-5.389474 21.557895-16.168421 21.557895-26.947368l-5.389474-91.621053zM851.536842 522.778947c-10.778947-5.389474-26.947368-5.389474-32.336842 5.389474l-91.621053 91.621053c-5.389474 5.389474-5.389474 10.778947-5.389473 16.168421l-5.389474 91.621052c0 10.778947 5.389474 21.557895 21.557895 26.947369h5.389473c10.778947 0 21.557895-5.389474 21.557895-16.168421l97.010526-188.631579c0-5.389474 0-16.168421-10.778947-26.947369zM512 549.726316c0-10.778947-10.778947-21.557895-26.947368-21.557895-10.778947 0-26.947368 10.778947-26.947369 21.557895l-21.557895 118.568421v10.778947l26.947369 140.126316c0 10.778947 16.168421 21.557895 26.947368 21.557895 16.168421 0 26.947368-10.778947 26.947369-26.947369l5.389473-188.631579-10.778947-75.452631zM635.957895 549.726316c0-10.778947-16.168421-21.557895-26.947369-21.557895s-26.947368 10.778947-26.947368 21.557895l-10.778947 75.452631 5.389473 183.242106c0 16.168421 10.778947 26.947368 26.947369 26.947368 10.778947 0 21.557895-10.778947 26.947368-21.557895l26.947368-140.126315v-10.778948l-21.557894-113.178947z" fill="#E4751F" p-id="2431"></path><path d="M759.915789 619.789474c-5.389474-5.389474-16.168421-5.389474-21.557894-5.389474l-113.178948 32.336842c-10.778947 5.389474-16.168421 10.778947-21.557894 21.557895l-26.947369 140.126316c0 10.778947 0 21.557895 10.778948 26.947368l21.557894 10.778947c5.389474 5.389474 10.778947 5.389474 16.168421 5.389474 5.389474 0 10.778947 0 16.168421-5.389474l118.568421-91.621052c5.389474-5.389474 10.778947-10.778947 10.778948-21.557895l5.389474-91.621053c-5.389474-10.778947-10.778947-16.168421-16.168422-21.557894zM490.442105 668.294737c0-10.778947-10.778947-16.168421-16.168421-21.557895l-113.178947-32.336842c-10.778947 0-16.168421 0-21.557895 5.389474-5.389474 5.389474-10.778947 16.168421-10.778947 21.557894L323.368421 732.968421c0 5.389474 5.389474 16.168421 10.778947 21.557895l118.568421 91.621052c5.389474 5.389474 10.778947 5.389474 16.168422 5.389474 5.389474 0 10.778947 0 16.168421-5.389474l21.557894-10.778947c10.778947-5.389474 10.778947-16.168421 10.778948-26.947368l-26.947369-140.126316z" fill="#F6851B" p-id="2432"></path><path d="M781.473684 878.484211c-5.389474-10.778947-21.557895-16.168421-32.336842-10.778948l-86.231579 43.11579c0-5.389474-5.389474-10.778947-10.778947-16.168421l-10.778948-10.778948c-5.389474-5.389474-10.778947-5.389474-16.168421-5.389473H468.884211c-5.389474 0-16.168421 0-16.168422 5.389473l-10.778947 10.778948c-5.389474 5.389474-10.778947 10.778947-10.778947 16.168421L344.926316 867.705263c-10.778947-5.389474-26.947368 0-32.336842 10.778948-5.389474 10.778947-5.389474 26.947368 5.389473 37.726315l48.505264 37.726316 91.621052 64.673684c5.389474 5.389474 10.778947 5.389474 16.168421 5.389474h156.294737c5.389474 0 10.778947 0 16.168421-5.389474l91.621053-64.673684 43.115789-37.726316c5.389474-10.778947 5.389474-26.947368 0-37.726315z" fill="#C0AD9E" p-id="2433"></path><path d="M646.736842 824.589474c0-5.389474-5.389474-16.168421-10.778947-21.557895l-21.557895-10.778947c-5.389474-5.389474-10.778947-5.389474-16.168421-5.389474h-107.789474c-5.389474 0-10.778947 0-16.168421 5.389474l-21.557895 10.778947c-5.389474 5.389474-10.778947 10.778947-10.778947 21.557895L431.157895 910.821053c0 10.778947 5.389474 21.557895 16.168421 26.947368 5.389474 0 5.389474 5.389474 10.778947 5.389474s10.778947 0 16.168421-5.389474h134.736842c10.778947 5.389474 21.557895 10.778947 32.336842 5.389474 10.778947-5.389474 16.168421-16.168421 16.168421-26.947369l-10.778947-91.621052z" fill="#161616" p-id="2434"></path><path d="M1077.894737 366.484211c0-10.778947-5.389474-16.168421-10.778948-21.557895l-5.389473-5.389474 32.336842-150.905263v-16.168421l-53.894737-156.294737c-5.389474-10.778947-10.778947-16.168421-16.168421-16.168421-10.778947 0-16.168421 0-21.557895 5.389474l-388.042105 291.031579c-16.168421 10.778947-21.557895 16.168421-21.557895 26.947368s5.389474 16.168421 10.778948 21.557895L754.526316 468.884211c5.389474 0 5.389474 5.389474 10.778947 5.389473l210.189474 64.673684h5.389474c5.389474 0 16.168421-5.389474 21.557894-10.778947l48.505263-53.894737c5.389474-5.389474 5.389474-10.778947 5.389474-21.557895 0-5.389474 0-10.778947-5.389474-10.778947l10.778948-10.778947c5.389474-5.389474 10.778947-10.778947 10.778947-21.557895 0-5.389474-5.389474-10.778947-5.389474-16.168421l5.389474-5.389474c0-5.389474 5.389474-10.778947 5.389474-21.557894zM485.052632 301.810526L91.621053 10.778947C86.231579 5.389474 80.842105 5.389474 70.063158 5.389474c-10.778947 5.389474-16.168421 10.778947-16.168421 16.168421L0 177.852632v16.168421l32.336842 150.905263H21.557895c-5.389474 5.389474-10.778947 16.168421-10.778948 21.557895s5.389474 16.168421 10.778948 21.557894l5.389473 5.389474c-5.389474 5.389474-5.389474 10.778947-5.389473 16.168421 0 5.389474 5.389474 16.168421 10.778947 21.557895l10.778947 10.778947c-5.389474 0-10.778947 5.389474-10.778947 10.778947s0 16.168421 5.389474 21.557895l48.505263 53.894737c5.389474 5.389474 10.778947 10.778947 21.557895 10.778947h5.389473L323.368421 474.273684c5.389474 0 5.389474-5.389474 10.778947-5.389473L485.052632 344.926316c5.389474-5.389474 10.778947-16.168421 10.778947-21.557895 0-10.778947-5.389474-16.168421-10.778947-21.557895z" fill="#763D16" p-id="2435"></path><path d="M1077.894737 722.189474l-70.063158-220.968421c-5.389474-10.778947-10.778947-16.168421-16.168421-16.168421l-210.189474-64.673685c-10.778947-5.389474-21.557895 0-26.947368 10.778948-5.389474 10.778947-5.389474 21.557895 0 32.336842l53.894737 86.231579-91.621053 172.463158c-5.389474 10.778947-5.389474 16.168421 0 26.947368 5.389474 5.389474 16.168421 10.778947 21.557895 10.778947h312.589473c10.778947 0 16.168421-5.389474 21.557895-10.778947 10.778947-10.778947 10.778947-16.168421 5.389474-26.947368zM371.873684 722.189474l-86.231579-172.463158 53.894737-86.231579c5.389474-10.778947 5.389474-21.557895 0-32.336842-5.389474-5.389474-16.168421-10.778947-26.947368-5.389474l-215.578948 59.284211c-5.389474 5.389474-16.168421 10.778947-16.168421 16.168421L10.778947 722.189474c0 10.778947 0 16.168421 5.389474 21.557894 0 10.778947 10.778947 16.168421 21.557895 16.168421h312.589473c10.778947 0 16.168421-5.389474 21.557895-10.778947 5.389474-10.778947 5.389474-21.557895 0-26.947368zM706.021053 140.126316c-5.389474-5.389474-10.778947-10.778947-21.557895-10.778948H409.6c-10.778947 0-16.168421 5.389474-21.557895 10.778948s-10.778947 16.168421-5.389473 26.947368l59.28421 161.684211 16.168421 301.810526V813.810526c0 16.168421 10.778947 26.947368 26.947369 26.947369h113.178947c16.168421 0 26.947368-10.778947 26.947368-26.947369v-177.852631l5.389474-75.452632L646.736842 328.757895l59.284211-161.684211c5.389474-10.778947 5.389474-21.557895 0-26.947368z" fill="#F6851B" p-id="2436"></path></svg>