<svg t="1711331147515" class="icon" viewBox="0 0 1024 1024" version="1.1" xmlns="http://www.w3.org/2000/svg" p-id="14445" width="200" height="200"><path d="M426.666667 49.271467a170.666667 170.666667 0 0 1 170.666666 0l272.725334 157.457066a170.666667 170.666667 0 0 1 85.333333 147.797334v314.948266a170.666667 170.666667 0 0 1-85.333333 147.797334L597.333333 974.728533a170.666667 170.666667 0 0 1-170.666666 0L153.941333 817.271467a170.666667 170.666667 0 0 1-85.333333-147.797334V354.542933a170.666667 170.666667 0 0 1 85.333333-147.797333L426.666667 49.2544z" fill="#1F71FF" p-id="14446"></path><path d="M576.5632 438.528s-2.048-5.290667-2.048-9.386667c-0.802133-3.242667 0.426667-8.96 0.426667-8.96l-250.350934 18.756267v18.756267l251.972267-19.165867zM590.0288 397.346133s4.881067-3.259733 8.1408-3.669333c4.488533-1.6384 9.796267-1.6384 9.796267-1.6384l-41.591467-89.275733-16.725333 8.1408 40.379733 86.442666zM771.054933 460.117333l1.211734-17.527466-130.048-20.3776s0.392533 4.898133-0.4096 9.7792c-1.2288 6.126933-2.4576 7.748267-2.4576 7.748266l131.703466 20.394667zM404.923733 672.546133l-23.6544 10.205867-88.8832-222.208 16.725334-8.157867 95.812266 220.16zM584.311467 449.9456L420.010667 676.625067l19.165866 16.315733 161.041067-234.0352s-6.519467-2.048-8.567467-3.242667c-1.621333-0.836267-7.338667-5.717333-7.338666-5.717333z" fill="#FFFFFF" opacity=".5" p-id="14447"></path><path d="M296.465067 438.528l219.767466-154.9312 13.038934 25.685333-216.081067 141.482667-16.725333-12.2368zM447.317333 710.468267l326.587734-239.735467-11.008-14.677333-335.957334 227.089066 20.394667 27.323734z" fill="#FFFFFF" p-id="14448"></path><path d="M809.130667 456.055467a35.054933 35.054933 0 0 1-35.054934 35.054933 35.328 35.328 0 0 1-35.054933-35.054933 35.054933 35.054933 0 1 1 70.126933 0zM338.466133 450.747733a41.9328 41.9328 0 0 1-41.984 41.984 41.9328 41.9328 0 0 1-42.001066-41.984 41.9328 41.9328 0 0 1 41.984-41.984 41.9328 41.9328 0 0 1 41.984 41.984z" fill="#FFFFFF" p-id="14449"></path><path d="M642.218667 426.2912a33.757867 33.757867 0 0 1-33.8432 33.8432 33.757867 33.757867 0 0 1-33.8432-33.8432c0-18.756267 15.086933-33.8432 33.8432-33.8432 18.756267-0.4096 33.8432 14.677333 33.8432 33.8432z" fill="#FFFFFF" opacity=".5" p-id="14450"></path><path d="M521.5232 311.722667l-119.057067 358.792533 35.4816 10.1888 114.978134-366.933333-31.402667-2.048z" fill="#FFFFFF" p-id="14451"></path><path d="M591.240533 283.5968a49.066667 49.066667 0 0 1-48.930133 48.913067 49.066667 49.066667 0 0 1-48.913067-48.913067 49.066667 49.066667 0 0 1 48.913067-48.930133 49.066667 49.066667 0 0 1 48.930133 48.930133zM468.104533 707.618133a59.3408 59.3408 0 0 1-59.528533 59.528534 59.3408 59.3408 0 0 1-59.511467-59.528534 59.3408 59.3408 0 0 1 59.528534-59.528533 59.5968 59.5968 0 0 1 59.511466 59.528533z" fill="#FFFFFF" p-id="14452"></path><path d="M576.580267 438.528s-1.6384-6.929067-2.048-9.386667c-0.802133-2.850133 0.4096-8.96 0.4096-8.96" fill="#E63A45" opacity=".2" p-id="14453"></path></svg>