<svg t="1711591374254" class="icon" viewBox="0 0 1024 1024" version="1.1" xmlns="http://www.w3.org/2000/svg" p-id="1583" width="200" height="200"><path d="M629.333333 330.666667h10.666667a117.333333 117.333333 0 0 1 117.333333 117.333333v330.666667a42.666667 42.666667 0 1 0 85.333334 0V277.333333a53.333333 53.333333 0 0 1-29.354667-97.877333L768 106.666667l22.613333-22.613334 116.053334 116.032V778.666667a106.666667 106.666667 0 0 1-213.333334 0V448a53.333333 53.333333 0 0 0-53.333333-53.333333h-10.666667v512H682.666667v64H85.333333v-64h53.333334V170.666667A117.333333 117.333333 0 0 1 256 53.333333h256A117.333333 117.333333 0 0 1 629.333333 170.666667v160z m-64 576V170.666667A53.333333 53.333333 0 0 0 512 117.333333H256A53.333333 53.333333 0 0 0 202.666667 170.666667v736h362.666666z m-298.666666-704h234.666666v192h-234.666666v-192z m64 64v64h106.666666v-64h-106.666666zM256 768h256v64H256v-64z" fill="#979797" p-id="1584"></path></svg>