<svg t="1712116193618" class="icon" viewBox="0 0 1024 1024" version="1.1" xmlns="http://www.w3.org/2000/svg" p-id="4527" width="200" height="200"><path d="M160.117 212.026v-82.233a8 8 0 0 1 13.33-5.966l407.697 364.298c0.9 0.804 1.753 1.658 2.556 2.558 11.764 13.186 10.62 33.419-2.556 45.192L173.448 900.173a8 8 0 0 1-13.33-5.966v-82.233a16 16 0 0 1 5.338-11.93L487.814 512 165.456 223.957a16 16 0 0 1-5.339-11.931z m272.057 0v-82.233a8 8 0 0 1 13.33-5.966l407.697 364.298c0.9 0.804 1.753 1.658 2.556 2.558 11.764 13.186 10.62 33.419-2.556 45.192L445.505 900.173a8 8 0 0 1-13.33-5.966v-82.233a16 16 0 0 1 5.339-11.93L759.87 512 437.514 223.957a16 16 0 0 1-5.34-11.931z" fill="#5090F1" p-id="4528"></path></svg>