<svg t="1711711157084" class="icon" viewBox="0 0 1024 1024" version="1.1" xmlns="http://www.w3.org/2000/svg" p-id="4002" width="200" height="200"><path d="M1024 518.3488C1024 794.7776 794.7776 1024 505.6512 1024 229.2224 1024 0 794.7776 0 518.3488 0 229.2224 229.2224 0 505.6512 0 794.7776 0 1024 229.2224 1024 518.3488z m-742.912 12.9024l157.952 165.1712a5.1712 5.1712 0 0 0 7.424 0.256l343.296-341.3504c2.0992-2.1504 1.9456-5.4272-0.2048-7.5776l-20.1728-20.1216a6.144 6.144 0 0 0-7.936-0.4608l-314.5728 264.8576a6.8096 6.8096 0 0 1-8.3456 0.1024l-129.024-99.8912c-2.304-1.8432-5.5808-1.4848-7.168 0.768l-22.016 30.208c-1.536 2.048-1.28 5.888 0.768 8.0384z" fill="#02A13B" p-id="4003"></path></svg>